<svg width="160" height="120" viewBox="0 0 160 120" fill="none" xmlns="http://www.w3.org/2000/svg">
  <rect width="160" height="120" rx="16" fill="#2a2a2a"/>
  <g transform="translate(25, 15)">
    <!-- Rosemary sprigs -->
    <rect x="20" y="20" width="3" height="60" fill="#228B22"/>
    <rect x="40" y="25" width="3" height="55" fill="#228B22"/>
    <rect x="60" y="15" width="3" height="65" fill="#228B22"/>
    <!-- Rosemary leaves -->
    <ellipse cx="18" cy="25" rx="8" ry="2" fill="#32CD32"/>
    <ellipse cx="26" cy="30" rx="8" ry="2" fill="#32CD32"/>
    <ellipse cx="18" cy="35" rx="8" ry="2" fill="#32CD32"/>
    <ellipse cx="26" cy="40" rx="8" ry="2" fill="#32CD32"/>
    <ellipse cx="18" cy="45" rx="8" ry="2" fill="#32CD32"/>
    
    <ellipse cx="38" cy="30" rx="8" ry="2" fill="#32CD32"/>
    <ellipse cx="46" cy="35" rx="8" ry="2" fill="#32CD32"/>
    <ellipse cx="38" cy="40" rx="8" ry="2" fill="#32CD32"/>
    <ellipse cx="46" cy="45" rx="8" ry="2" fill="#32CD32"/>
    
    <ellipse cx="58" cy="20" rx="8" ry="2" fill="#32CD32"/>
    <ellipse cx="66" cy="25" rx="8" ry="2" fill="#32CD32"/>
    <ellipse cx="58" cy="30" rx="8" ry="2" fill="#32CD32"/>
    <ellipse cx="66" cy="35" rx="8" ry="2" fill="#32CD32"/>
    <ellipse cx="58" cy="40" rx="8" ry="2" fill="#32CD32"/>
    
    <!-- Thyme sprigs -->
    <rect x="80" y="30" width="2" height="40" fill="#8FBC8F"/>
    <rect x="90" y="35" width="2" height="35" fill="#8FBC8F"/>
    <!-- Small thyme leaves -->
    <circle cx="78" cy="35" r="1.5" fill="#9ACD32"/>
    <circle cx="82" cy="38" r="1.5" fill="#9ACD32"/>
    <circle cx="78" cy="41" r="1.5" fill="#9ACD32"/>
    <circle cx="82" cy="44" r="1.5" fill="#9ACD32"/>
    
    <circle cx="88" cy="40" r="1.5" fill="#9ACD32"/>
    <circle cx="92" cy="43" r="1.5" fill="#9ACD32"/>
    <circle cx="88" cy="46" r="1.5" fill="#9ACD32"/>
  </g>
</svg>